<?xml version="1.0" encoding="utf-8"?>
<!-- Generator: Adobe Illustrator 23.0.6, SVG Export Plug-In . SVG Version: 6.00 Build 0)  -->
<svg version="1.1" id="Capa_1" xmlns="http://www.w3.org/2000/svg" xmlns:xlink="http://www.w3.org/1999/xlink" x="0px" y="0px"
	 viewBox="0 0 76 30" style="enable-background:new 0 0 76 30;" xml:space="preserve">
<style type="text/css">
	.st0{fill:#FFFFFF;}
	.st1{fill:url(#SVGID_1_);}
	.st2{fill:#1313E2;}
	.st3{fill:#0606B5;}
	.st4{fill:url(#SVGID_2_);}
	.st5{fill:#E01780;}
	.st6{fill:#24B224;}
	.st7{fill:#5E2B39;}
	.st8{fill:#EF890F;}
	.st9{fill:#DD2719;}
	.st10{fill:#D8D036;}
	.st11{fill:#26269B;}
	.st12{fill:#A22AE8;}
	.st13{fill:#626B68;}
	.st14{fill:#757A09;}
	.st15{fill:#606060;}
</style>
<g>
	<g>
		<path d="M12.78,17.45h-0.35c-0.04,0-0.08-0.01-0.1-0.03s-0.05-0.05-0.06-0.09l-0.75-1.84H8.4l-0.74,1.84
			c-0.01,0.03-0.03,0.06-0.06,0.08c-0.03,0.02-0.07,0.04-0.11,0.04H7.14l2.59-6.33h0.46L12.78,17.45z M8.54,15.15h2.83l-1.29-3.2
			c-0.02-0.05-0.04-0.11-0.06-0.17c-0.02-0.06-0.04-0.13-0.06-0.2c-0.02,0.07-0.04,0.14-0.06,0.2c-0.02,0.06-0.04,0.12-0.06,0.18
			L8.54,15.15z"/>
		<path d="M17.73,11.12v0.38H14.4v2.56h2.77v0.37H14.4v2.64h3.33v0.38h-3.79v-6.33H17.73z"/>
		<path d="M19.98,14.58v2.86h-0.46v-6.33h1.61c0.73,0,1.28,0.14,1.64,0.42c0.36,0.28,0.54,0.7,0.54,1.24c0,0.24-0.04,0.46-0.13,0.66
			c-0.08,0.2-0.2,0.38-0.36,0.53s-0.34,0.27-0.57,0.37s-0.47,0.16-0.75,0.19c0.07,0.04,0.14,0.1,0.19,0.18l2.18,2.74h-0.4
			c-0.05,0-0.09-0.01-0.12-0.03c-0.03-0.02-0.07-0.05-0.1-0.09l-2.03-2.57c-0.05-0.07-0.1-0.11-0.16-0.14
			c-0.06-0.03-0.15-0.04-0.27-0.04H19.98z M19.98,14.24h1.1c0.28,0,0.53-0.03,0.75-0.1c0.22-0.07,0.41-0.16,0.56-0.29
			s0.27-0.28,0.35-0.45c0.08-0.18,0.12-0.37,0.12-0.59c0-0.45-0.15-0.78-0.44-1c-0.3-0.22-0.72-0.33-1.29-0.33h-1.16V14.24z"/>
		<path d="M30.64,14.28c0,0.49-0.07,0.93-0.22,1.33c-0.15,0.4-0.35,0.74-0.62,1.02c-0.27,0.28-0.58,0.5-0.95,0.65
			c-0.37,0.15-0.78,0.23-1.23,0.23c-0.44,0-0.85-0.08-1.22-0.23c-0.37-0.15-0.69-0.37-0.95-0.65c-0.27-0.28-0.47-0.62-0.62-1.02
			c-0.15-0.4-0.22-0.84-0.22-1.33c0-0.49,0.07-0.93,0.22-1.33c0.15-0.4,0.35-0.74,0.62-1.02c0.27-0.28,0.58-0.5,0.95-0.66
			c0.37-0.16,0.78-0.23,1.22-0.23c0.45,0,0.86,0.08,1.23,0.23c0.37,0.15,0.69,0.37,0.95,0.66c0.26,0.28,0.47,0.62,0.62,1.02
			C30.57,13.35,30.64,13.79,30.64,14.28z M30.17,14.28c0-0.44-0.06-0.84-0.18-1.19s-0.29-0.65-0.52-0.89
			c-0.22-0.24-0.49-0.43-0.8-0.56c-0.31-0.13-0.66-0.19-1.04-0.19c-0.38,0-0.72,0.06-1.03,0.19s-0.58,0.32-0.8,0.56
			c-0.23,0.25-0.4,0.54-0.52,0.89s-0.19,0.75-0.19,1.19c0,0.44,0.06,0.84,0.19,1.19c0.12,0.35,0.3,0.65,0.52,0.89
			c0.22,0.24,0.49,0.43,0.8,0.56c0.31,0.13,0.66,0.19,1.03,0.19c0.38,0,0.73-0.06,1.04-0.19c0.31-0.13,0.58-0.31,0.8-0.56
			s0.39-0.54,0.52-0.89C30.11,15.12,30.17,14.72,30.17,14.28z"/>
		<path d="M12.15,21.85v0.39H9.92v5.94H9.47v-5.94H7.23v-0.39H12.15z"/>
		<path d="M17.19,21.85v0.38h-3.33v2.56h2.77v0.37h-2.77v2.64h3.33v0.38H13.4v-6.33H17.19z"/>
		<path d="M19.44,25.32v2.86h-0.46v-6.33h1.61c0.73,0,1.28,0.14,1.64,0.42c0.36,0.28,0.54,0.7,0.54,1.24c0,0.24-0.04,0.46-0.13,0.66
			c-0.08,0.2-0.2,0.38-0.36,0.53s-0.34,0.27-0.57,0.37s-0.47,0.16-0.75,0.19c0.07,0.04,0.14,0.1,0.19,0.18l2.18,2.74h-0.4
			c-0.05,0-0.09-0.01-0.12-0.03c-0.03-0.02-0.07-0.05-0.1-0.09l-2.03-2.57c-0.05-0.07-0.1-0.11-0.16-0.14
			c-0.06-0.03-0.15-0.04-0.27-0.04H19.44z M19.44,24.98h1.1c0.28,0,0.53-0.03,0.75-0.1c0.22-0.07,0.41-0.16,0.56-0.29
			s0.27-0.28,0.35-0.45c0.08-0.18,0.12-0.37,0.12-0.59c0-0.45-0.15-0.78-0.44-1c-0.3-0.22-0.72-0.33-1.29-0.33h-1.16V24.98z"/>
		<path d="M27.81,26.6c0.02-0.05,0.04-0.09,0.06-0.14c0.02-0.05,0.04-0.09,0.07-0.13l2.49-4.4c0.02-0.04,0.05-0.06,0.07-0.07
			c0.02-0.01,0.06-0.01,0.1-0.01h0.32v6.33h-0.4v-5.39c0-0.08,0-0.16,0.01-0.25l-2.49,4.42c-0.04,0.08-0.1,0.12-0.18,0.12h-0.07
			c-0.08,0-0.13-0.04-0.18-0.12l-2.56-4.43c0.01,0.09,0.01,0.17,0.01,0.25v5.39h-0.4v-6.33h0.31c0.04,0,0.08,0,0.1,0.01
			s0.05,0.03,0.07,0.07l2.55,4.4C27.74,26.42,27.78,26.51,27.81,26.6z"/>
		<path d="M33.57,28.18h-0.46v-6.33h0.46V28.18z"/>
		<path d="M40.54,28.18h-0.35c-0.04,0-0.08-0.01-0.1-0.03s-0.05-0.05-0.06-0.09l-0.75-1.84h-3.11l-0.74,1.84
			c-0.01,0.03-0.03,0.06-0.06,0.08c-0.03,0.02-0.07,0.04-0.11,0.04h-0.35l2.59-6.33h0.46L40.54,28.18z M36.31,25.88h2.83l-1.29-3.2
			c-0.02-0.05-0.04-0.11-0.06-0.17c-0.02-0.06-0.04-0.13-0.06-0.2c-0.02,0.07-0.04,0.14-0.06,0.2c-0.02,0.06-0.04,0.12-0.06,0.18
			L36.31,25.88z"/>
	</g>
	<g>
		<ellipse cx="37.08" cy="14.87" rx="0.73" ry="0.73"/>
		<path d="M2.97,14.63c-0.16,0-0.29-0.13-0.29-0.29V3.97c0-0.16,0.13-0.29,0.29-0.29h14.25c0.16,0,0.29,0.13,0.29,0.29
			c0,0.16-0.13,0.29-0.29,0.29H3.26v10.08C3.26,14.5,3.13,14.63,2.97,14.63z"/>
		<path d="M36.9,14.69c-0.16,0-0.29-0.13-0.29-0.29V4.16H20.79c-0.16,0-0.29-0.13-0.29-0.29s0.13-0.29,0.29-0.29H36.9
			c0.16,0,0.29,0.13,0.29,0.29V14.4C37.2,14.56,37.07,14.69,36.9,14.69z"/>
		<path class="st8" d="M3.75,16.63h-1.6c-0.29,0-0.53-0.24-0.53-0.53v0c0-0.29,0.24-0.53,0.53-0.53h1.6c0.29,0,0.53,0.24,0.53,0.53
			v0C4.28,16.4,4.05,16.63,3.75,16.63z"/>
		<path class="st8" d="M18.47,4.65V3.08c0-0.29,0.24-0.53,0.53-0.53l0,0c0.29,0,0.53,0.24,0.53,0.53v1.57
			c0,0.29-0.24,0.53-0.53,0.53l0,0C18.71,5.18,18.47,4.94,18.47,4.65z"/>
		<path d="M2.95,27.45c-0.17,0-0.3-0.13-0.3-0.3v-9.24c0-0.17,0.13-0.3,0.3-0.3c0.17,0,0.3,0.13,0.3,0.3v9.24
			C3.25,27.32,3.12,27.45,2.95,27.45z"/>
		<g>
			<path d="M3.03,28.02c-0.4,0.05-0.76-0.23-0.82-0.63c-0.05-0.4,0.23-0.76,0.63-0.81c0.03,0,0.07-0.01,0.1-0.01
				c0.36,0,0.67,0.27,0.72,0.63C3.72,27.6,3.43,27.97,3.03,28.02z"/>
			<path d="M2.94,28.06c-0.38,0-0.71-0.28-0.76-0.67c-0.03-0.2,0.03-0.4,0.16-0.56c0.13-0.16,0.31-0.26,0.51-0.29
				c0.03,0,0.06-0.01,0.1-0.01c0.38,0,0.7,0.29,0.75,0.67c0.05,0.42-0.25,0.8-0.67,0.85l0,0C3,28.06,2.97,28.06,2.94,28.06z
				 M3.03,28.02L3.03,28.02L3.03,28.02z M2.95,26.61c-0.04,0-0.07,0-0.09,0.01c-0.18,0.02-0.35,0.12-0.46,0.26
				c-0.11,0.14-0.16,0.33-0.14,0.51c0.05,0.38,0.39,0.64,0.77,0.6l0,0c0.38-0.05,0.65-0.39,0.6-0.77
				C3.58,26.87,3.29,26.61,2.95,26.61z"/>
		</g>
	</g>
</g>
</svg>
