<?xml version="1.0" encoding="utf-8"?>
<!-- Generator: Adobe Illustrator 23.0.6, SVG Export Plug-In . SVG Version: 6.00 Build 0)  -->
<svg version="1.1" id="Capa_1" xmlns="http://www.w3.org/2000/svg" xmlns:xlink="http://www.w3.org/1999/xlink" x="0px" y="0px"
	 viewBox="0 0 75 30" style="enable-background:new 0 0 75 30;" xml:space="preserve">
<style type="text/css">
	.st0{fill:#FFFFFF;}
	.st1{fill:url(#SVGID_1_);}
	.st2{fill:#1313E2;}
	.st3{fill:#0606B5;}
	.st4{fill:url(#SVGID_2_);}
	.st5{fill:#E01780;}
	.st6{fill:#24B224;}
	.st7{fill:#5E2B39;}
	.st8{fill:#EF890F;}
	.st9{fill:#DD2719;}
	.st10{fill:#D8D036;}
	.st11{fill:#26269B;}
	.st12{fill:#A22AE8;}
	.st13{fill:#626B68;}
	.st14{fill:#757A09;}
	.st15{fill:#606060;}
</style>
<g>
	<g>
		<path d="M9.52,17.19c0.22,0,0.42-0.01,0.6-0.03c0.18-0.02,0.35-0.06,0.51-0.1c0.16-0.04,0.3-0.1,0.45-0.17
			c0.14-0.06,0.28-0.14,0.42-0.22v-1.73h-1.24c-0.03,0-0.06-0.01-0.08-0.03c-0.02-0.02-0.03-0.04-0.03-0.07v-0.25h1.78v2.29
			c-0.16,0.11-0.33,0.21-0.5,0.3s-0.36,0.16-0.55,0.22c-0.2,0.06-0.41,0.1-0.64,0.14c-0.23,0.03-0.48,0.05-0.75,0.05
			c-0.46,0-0.89-0.08-1.27-0.23c-0.38-0.16-0.71-0.38-0.99-0.66s-0.49-0.63-0.64-1.04s-0.23-0.86-0.23-1.35s0.08-0.95,0.23-1.35
			s0.37-0.75,0.65-1.04c0.28-0.29,0.62-0.51,1.02-0.66c0.4-0.16,0.84-0.23,1.34-0.23c0.25,0,0.47,0.02,0.68,0.05
			c0.21,0.03,0.4,0.08,0.58,0.15c0.18,0.07,0.35,0.15,0.5,0.24c0.16,0.1,0.3,0.21,0.45,0.33l-0.12,0.2
			c-0.03,0.04-0.07,0.07-0.11,0.07c-0.03,0-0.05-0.01-0.08-0.02c-0.04-0.02-0.11-0.06-0.2-0.13c-0.09-0.07-0.2-0.14-0.35-0.21
			c-0.15-0.07-0.33-0.14-0.55-0.2c-0.22-0.06-0.49-0.09-0.8-0.09c-0.42,0-0.8,0.07-1.13,0.2c-0.34,0.13-0.62,0.33-0.86,0.57
			c-0.24,0.25-0.42,0.55-0.55,0.91s-0.19,0.76-0.19,1.21c0,0.45,0.07,0.86,0.2,1.22c0.13,0.36,0.31,0.67,0.55,0.92
			c0.24,0.25,0.52,0.44,0.85,0.58C8.76,17.12,9.12,17.19,9.52,17.19z"/>
		<path d="M17.58,11.06v0.39h-3.39v2.6h2.82v0.38h-2.82v2.68h3.39v0.39h-3.86v-6.43H17.58z"/>
		<path d="M25,14.27c0,0.5-0.07,0.95-0.22,1.35s-0.36,0.75-0.63,1.04c-0.27,0.29-0.59,0.51-0.97,0.66s-0.79,0.23-1.25,0.23
			c-0.45,0-0.87-0.08-1.24-0.23c-0.38-0.16-0.7-0.38-0.97-0.66c-0.27-0.29-0.48-0.63-0.63-1.04s-0.22-0.86-0.22-1.35
			c0-0.49,0.07-0.94,0.22-1.35c0.15-0.41,0.36-0.75,0.63-1.04s0.59-0.51,0.97-0.67c0.38-0.16,0.79-0.24,1.24-0.24
			c0.46,0,0.88,0.08,1.25,0.23s0.7,0.38,0.97,0.67c0.27,0.29,0.48,0.63,0.63,1.04C24.92,13.33,25,13.78,25,14.27z M24.52,14.27
			c0-0.45-0.06-0.85-0.19-1.21c-0.13-0.36-0.3-0.66-0.53-0.91c-0.23-0.25-0.5-0.44-0.82-0.57s-0.67-0.2-1.06-0.2
			c-0.38,0-0.73,0.07-1.05,0.2c-0.32,0.13-0.59,0.32-0.82,0.57c-0.23,0.25-0.41,0.55-0.53,0.91c-0.13,0.36-0.19,0.76-0.19,1.21
			c0,0.45,0.06,0.86,0.19,1.21c0.13,0.36,0.3,0.66,0.53,0.91c0.23,0.25,0.5,0.44,0.82,0.57c0.32,0.13,0.67,0.2,1.05,0.2
			c0.39,0,0.74-0.06,1.06-0.2c0.32-0.13,0.59-0.32,0.82-0.57c0.23-0.25,0.4-0.55,0.53-0.91C24.45,15.13,24.52,14.72,24.52,14.27z"/>
		<path d="M10.95,21.97v0.4H8.7v6.04H8.23v-6.04H5.96v-0.4H10.95z"/>
		<path d="M16.09,21.97v0.39H12.7v2.6h2.82v0.38H12.7v2.68h3.39v0.39h-3.86v-6.43H16.09z"/>
		<path d="M18.37,25.49v2.91h-0.46v-6.43h1.64c0.74,0,1.3,0.14,1.66,0.43c0.37,0.29,0.55,0.71,0.55,1.26c0,0.25-0.04,0.47-0.13,0.67
			s-0.21,0.38-0.37,0.53c-0.16,0.15-0.35,0.28-0.58,0.38s-0.48,0.16-0.76,0.19c0.07,0.04,0.14,0.11,0.2,0.18l2.21,2.78h-0.4
			c-0.05,0-0.09-0.01-0.13-0.03c-0.04-0.02-0.07-0.05-0.1-0.09l-2.06-2.61c-0.05-0.07-0.11-0.11-0.17-0.14
			c-0.06-0.03-0.15-0.04-0.28-0.04H18.37z M18.37,25.15h1.12c0.29,0,0.54-0.03,0.77-0.1s0.42-0.17,0.57-0.29
			c0.16-0.13,0.27-0.28,0.36-0.46c0.08-0.18,0.12-0.38,0.12-0.6c0-0.46-0.15-0.8-0.45-1.02c-0.3-0.22-0.74-0.33-1.31-0.33h-1.18
			V25.15z"/>
		<path d="M26.88,26.8c0.02-0.05,0.04-0.1,0.06-0.14c0.02-0.05,0.04-0.09,0.07-0.13l2.53-4.47c0.02-0.04,0.05-0.06,0.07-0.07
			c0.02-0.01,0.06-0.01,0.1-0.01h0.32v6.43h-0.41v-5.48c0-0.08,0-0.16,0.01-0.25l-2.53,4.5c-0.04,0.08-0.1,0.12-0.18,0.12h-0.07
			c-0.08,0-0.14-0.04-0.18-0.12l-2.6-4.5c0.01,0.09,0.01,0.17,0.01,0.25v5.48h-0.4v-6.43h0.32c0.04,0,0.08,0,0.1,0.01
			c0.03,0.01,0.05,0.03,0.08,0.07l2.6,4.47C26.81,26.61,26.85,26.7,26.88,26.8z"/>
		<path d="M32.74,28.4h-0.47v-6.43h0.47V28.4z"/>
		<path d="M39.82,28.4h-0.36c-0.04,0-0.08-0.01-0.1-0.03s-0.05-0.05-0.06-0.09l-0.76-1.87h-3.16l-0.75,1.87
			c-0.01,0.03-0.03,0.06-0.06,0.09s-0.07,0.04-0.11,0.04H34.1l2.63-6.43h0.46L39.82,28.4z M35.52,26.06h2.88l-1.31-3.25
			c-0.02-0.05-0.04-0.11-0.06-0.17s-0.04-0.13-0.06-0.21c-0.02,0.07-0.04,0.14-0.06,0.21c-0.02,0.07-0.04,0.13-0.06,0.18
			L35.52,26.06z"/>
	</g>
	<g>
		<circle cx="36.05" cy="14.87" r="0.74"/>
		<path d="M1.61,14.63c-0.16,0-0.3-0.13-0.3-0.3V3.79c0-0.16,0.13-0.3,0.3-0.3h14.38c0.16,0,0.3,0.13,0.3,0.3s-0.13,0.3-0.3,0.3
			H1.91v10.25C1.91,14.5,1.78,14.63,1.61,14.63z"/>
		<path d="M35.87,14.69c-0.16,0-0.3-0.13-0.3-0.3V3.98H19.61c-0.16,0-0.3-0.13-0.3-0.3s0.13-0.3,0.3-0.3h16.27
			c0.16,0,0.3,0.13,0.3,0.3v10.71C36.17,14.55,36.04,14.69,35.87,14.69z"/>
		<path class="st10" d="M2.4,16.67H0.8c-0.3,0-0.53-0.24-0.53-0.53v0c0-0.3,0.24-0.53,0.53-0.53H2.4c0.3,0,0.53,0.24,0.53,0.53v0
			C2.94,16.43,2.7,16.67,2.4,16.67z"/>
		<path class="st10" d="M17.26,4.48V2.88c0-0.3,0.24-0.53,0.53-0.53h0c0.3,0,0.53,0.24,0.53,0.53l0,1.61c0,0.3-0.24,0.53-0.53,0.53
			h0C17.5,5.02,17.26,4.78,17.26,4.48z"/>
		<path d="M1.59,27.67c-0.17,0-0.3-0.14-0.3-0.3v-9.4c0-0.17,0.14-0.3,0.3-0.3s0.3,0.14,0.3,0.3v9.4
			C1.9,27.53,1.76,27.67,1.59,27.67z"/>
		<g>
			<path d="M1.68,28.24C1.28,28.29,0.91,28,0.86,27.6c-0.05-0.4,0.24-0.77,0.64-0.82c0.03,0,0.07-0.01,0.1-0.01
				c0.36,0,0.68,0.27,0.72,0.64C2.37,27.82,2.08,28.19,1.68,28.24z"/>
			<path d="M1.59,28.28c-0.38,0-0.72-0.29-0.77-0.68c-0.03-0.2,0.03-0.41,0.16-0.57c0.13-0.16,0.31-0.27,0.52-0.29
				c0.03,0,0.06-0.01,0.1-0.01c0.38,0,0.71,0.3,0.76,0.68c0.05,0.42-0.25,0.81-0.67,0.87l0,0C1.65,28.28,1.62,28.28,1.59,28.28z
				 M1.68,28.24L1.68,28.24L1.68,28.24z M1.59,26.81c-0.04,0-0.07,0-0.09,0.01c-0.19,0.02-0.35,0.12-0.47,0.27
				c-0.11,0.15-0.16,0.33-0.14,0.52c0.05,0.38,0.4,0.66,0.78,0.61l0,0c0.38-0.05,0.65-0.4,0.61-0.78
				C2.24,27.08,1.94,26.81,1.59,26.81z"/>
		</g>
	</g>
</g>
</svg>
