<?xml version="1.0" encoding="utf-8"?>
<!-- Generator: Adobe Illustrator 23.0.6, SVG Export Plug-In . SVG Version: 6.00 Build 0)  -->
<svg version="1.1" id="Capa_1" xmlns="http://www.w3.org/2000/svg" xmlns:xlink="http://www.w3.org/1999/xlink" x="0px" y="0px"
	 viewBox="0 0 76 30" style="enable-background:new 0 0 76 30;" xml:space="preserve">
<style type="text/css">
	.st0{fill:#FFFFFF;}
	.st1{fill:url(#SVGID_1_);}
	.st2{fill:#1313E2;}
	.st3{fill:#0606B5;}
	.st4{fill:url(#SVGID_2_);}
	.st5{fill:#E01780;}
	.st6{fill:#24B224;}
	.st7{fill:#5E2B39;}
	.st8{fill:#EF890F;}
	.st9{fill:#DD2719;}
	.st10{fill:#D8D036;}
	.st11{fill:#26269B;}
	.st12{fill:#A22AE8;}
	.st13{fill:#626B68;}
	.st14{fill:#757A09;}
	.st15{fill:#606060;}
</style>
<g>
	<g>
		<path d="M7.93,16.67v-6.43h1.85c0.37,0,0.68,0.04,0.95,0.11c0.27,0.07,0.49,0.18,0.67,0.32s0.31,0.31,0.39,0.52
			c0.09,0.2,0.13,0.43,0.13,0.69c0,0.17-0.03,0.33-0.09,0.49c-0.06,0.16-0.14,0.3-0.26,0.44c-0.11,0.13-0.25,0.25-0.41,0.35
			c-0.16,0.1-0.35,0.17-0.56,0.22c0.51,0.08,0.89,0.24,1.17,0.5c0.27,0.26,0.41,0.6,0.41,1.03c0,0.27-0.05,0.52-0.15,0.74
			c-0.1,0.22-0.24,0.4-0.42,0.55s-0.41,0.27-0.68,0.35s-0.58,0.12-0.92,0.12H7.93z M8.4,13.25h1.39c0.3,0,0.55-0.04,0.76-0.11
			c0.21-0.08,0.38-0.18,0.52-0.3s0.23-0.26,0.3-0.42c0.06-0.16,0.1-0.32,0.1-0.49c0-0.43-0.14-0.76-0.41-0.98
			c-0.27-0.22-0.7-0.33-1.27-0.33H8.4V13.25z M8.4,13.59v2.71h1.61c0.57,0,0.99-0.12,1.28-0.37c0.29-0.24,0.43-0.59,0.43-1.03
			c0-0.2-0.04-0.39-0.12-0.55c-0.08-0.16-0.19-0.3-0.33-0.41c-0.15-0.11-0.32-0.2-0.54-0.26s-0.45-0.09-0.72-0.09H8.4z"/>
		<path d="M14.56,16.67h-0.47v-6.43h0.47V16.67z"/>
		<path d="M22.53,13.45c0,0.5-0.07,0.95-0.22,1.35s-0.36,0.75-0.63,1.04s-0.59,0.51-0.97,0.66c-0.38,0.16-0.79,0.23-1.25,0.23
			c-0.45,0-0.86-0.08-1.24-0.23c-0.38-0.16-0.7-0.38-0.97-0.66s-0.48-0.63-0.63-1.04c-0.15-0.4-0.22-0.85-0.22-1.35
			c0-0.49,0.08-0.94,0.22-1.35c0.15-0.4,0.36-0.75,0.63-1.04s0.59-0.51,0.97-0.67c0.38-0.16,0.79-0.24,1.24-0.24
			c0.46,0,0.87,0.08,1.25,0.23c0.38,0.16,0.7,0.38,0.97,0.67c0.27,0.29,0.48,0.63,0.63,1.04C22.46,12.51,22.53,12.96,22.53,13.45z
			 M22.05,13.45c0-0.45-0.06-0.85-0.19-1.21c-0.12-0.36-0.3-0.66-0.52-0.91c-0.23-0.25-0.5-0.44-0.82-0.57
			c-0.32-0.13-0.67-0.2-1.06-0.2c-0.38,0-0.73,0.07-1.05,0.2c-0.32,0.13-0.59,0.32-0.82,0.57c-0.23,0.25-0.41,0.55-0.53,0.91
			c-0.13,0.36-0.19,0.76-0.19,1.21c0,0.45,0.06,0.86,0.19,1.21c0.13,0.36,0.3,0.66,0.53,0.91c0.23,0.25,0.5,0.44,0.82,0.57
			c0.32,0.13,0.67,0.2,1.05,0.2c0.39,0,0.74-0.07,1.06-0.2c0.32-0.13,0.59-0.32,0.82-0.57c0.23-0.25,0.4-0.55,0.52-0.91
			S22.05,13.9,22.05,13.45z"/>
		<path d="M11.14,25.97c0.02-0.05,0.04-0.1,0.06-0.14c0.02-0.05,0.04-0.09,0.07-0.13l2.53-4.46c0.02-0.04,0.05-0.06,0.07-0.07
			c0.02-0.01,0.06-0.01,0.1-0.01h0.32v6.43h-0.41v-5.48c0-0.08,0-0.16,0.01-0.25l-2.53,4.49c-0.04,0.08-0.1,0.12-0.18,0.12H11.1
			c-0.08,0-0.14-0.04-0.18-0.12l-2.6-4.5c0.01,0.09,0.01,0.17,0.01,0.25v5.48h-0.4v-6.43h0.32c0.04,0,0.08,0,0.1,0.01
			c0.03,0.01,0.05,0.03,0.08,0.07l2.59,4.47C11.07,25.78,11.11,25.87,11.14,25.97z"/>
		<path d="M21.19,27.56h-0.36c-0.04,0-0.08-0.01-0.1-0.03s-0.05-0.05-0.06-0.09l-0.76-1.87h-3.16l-0.75,1.87
			c-0.01,0.03-0.03,0.06-0.06,0.09s-0.07,0.04-0.11,0.04h-0.35l2.63-6.43h0.46L21.19,27.56z M16.89,25.23h2.88l-1.31-3.25
			c-0.02-0.05-0.04-0.11-0.06-0.18c-0.02-0.06-0.04-0.13-0.06-0.21c-0.02,0.07-0.04,0.14-0.06,0.21c-0.02,0.07-0.04,0.13-0.06,0.18
			L16.89,25.23z"/>
		<path d="M25.48,21.92C25.45,21.97,25.42,22,25.36,22c-0.04,0-0.09-0.03-0.15-0.08c-0.06-0.06-0.15-0.12-0.25-0.19
			s-0.24-0.13-0.4-0.19s-0.36-0.09-0.59-0.09c-0.23,0-0.44,0.03-0.62,0.1c-0.18,0.07-0.33,0.16-0.45,0.27s-0.21,0.25-0.27,0.4
			c-0.06,0.15-0.09,0.31-0.09,0.48c0,0.22,0.05,0.4,0.14,0.54c0.09,0.14,0.21,0.26,0.37,0.36c0.15,0.1,0.32,0.18,0.52,0.25
			s0.39,0.14,0.59,0.2s0.4,0.14,0.59,0.22c0.19,0.08,0.36,0.18,0.52,0.3s0.27,0.27,0.37,0.45c0.09,0.18,0.14,0.4,0.14,0.66
			c0,0.27-0.05,0.52-0.14,0.76c-0.09,0.24-0.23,0.44-0.4,0.62s-0.39,0.31-0.65,0.42c-0.25,0.1-0.54,0.15-0.87,0.15
			c-0.42,0-0.79-0.07-1.09-0.22c-0.31-0.15-0.57-0.35-0.8-0.62l0.13-0.2c0.04-0.04,0.08-0.07,0.13-0.07c0.03,0,0.06,0.02,0.1,0.05
			c0.04,0.04,0.09,0.08,0.15,0.13c0.06,0.05,0.13,0.11,0.22,0.17c0.08,0.06,0.18,0.12,0.3,0.17s0.24,0.1,0.39,0.13
			c0.15,0.04,0.31,0.05,0.5,0.05c0.25,0,0.48-0.04,0.68-0.12c0.2-0.08,0.37-0.18,0.51-0.32c0.14-0.13,0.24-0.29,0.32-0.47
			c0.07-0.18,0.11-0.38,0.11-0.59c0-0.23-0.05-0.41-0.14-0.56c-0.09-0.15-0.21-0.27-0.37-0.37c-0.15-0.1-0.32-0.18-0.52-0.25
			c-0.19-0.07-0.39-0.13-0.59-0.2s-0.4-0.13-0.59-0.21c-0.19-0.08-0.36-0.18-0.52-0.3c-0.15-0.12-0.27-0.28-0.37-0.46
			c-0.09-0.18-0.14-0.41-0.14-0.69c0-0.22,0.04-0.42,0.12-0.62c0.08-0.2,0.2-0.38,0.36-0.53c0.16-0.15,0.35-0.28,0.58-0.37
			c0.23-0.09,0.5-0.14,0.79-0.14c0.33,0,0.63,0.05,0.9,0.16c0.27,0.11,0.51,0.27,0.73,0.49L25.48,21.92z"/>
		<path d="M32.12,27.56h-0.36c-0.04,0-0.08-0.01-0.1-0.03s-0.05-0.05-0.06-0.09l-0.76-1.87h-3.16l-0.75,1.87
			c-0.01,0.03-0.03,0.06-0.06,0.09s-0.07,0.04-0.11,0.04H26.4l2.63-6.43h0.46L32.12,27.56z M27.82,25.23h2.88l-1.31-3.25
			c-0.02-0.05-0.04-0.11-0.06-0.18c-0.02-0.06-0.04-0.13-0.06-0.21c-0.02,0.07-0.04,0.14-0.06,0.21c-0.02,0.07-0.04,0.13-0.06,0.18
			L27.82,25.23z"/>
	</g>
	<g>
		<circle cx="37.2" cy="14.05" r="0.74"/>
		<path d="M2.8,13.81c-0.16,0-0.3-0.13-0.3-0.3V2.98c0-0.16,0.13-0.3,0.3-0.3h14.37c0.16,0,0.3,0.13,0.3,0.3
			c0,0.16-0.13,0.3-0.3,0.3H3.09v10.23C3.09,13.67,2.96,13.81,2.8,13.81z"/>
		<path d="M37.02,13.87c-0.16,0-0.3-0.13-0.3-0.3V3.17H20.77c-0.16,0-0.3-0.13-0.3-0.3s0.13-0.3,0.3-0.3h16.25
			c0.16,0,0.3,0.13,0.3,0.3v10.7C37.32,13.73,37.18,13.87,37.02,13.87z"/>
		<path class="st9" d="M3.59,15.84h-1.6c-0.3,0-0.53-0.24-0.53-0.53v0c0-0.3,0.24-0.53,0.53-0.53h1.6c0.3,0,0.53,0.24,0.53,0.53v0
			C4.12,15.6,3.88,15.84,3.59,15.84z"/>
		<path class="st9" d="M18.43,3.67v-1.6c0-0.3,0.24-0.53,0.53-0.53l0,0c0.3,0,0.53,0.24,0.53,0.53v1.6c0,0.3-0.24,0.53-0.53,0.53
			l0,0C18.67,4.21,18.43,3.97,18.43,3.67z"/>
		<path d="M2.78,26.83c-0.17,0-0.3-0.14-0.3-0.3v-9.39c0-0.17,0.14-0.3,0.3-0.3s0.3,0.14,0.3,0.3v9.39
			C3.08,26.69,2.95,26.83,2.78,26.83z"/>
		<g>
			<path d="M2.86,27.4c-0.4,0.05-0.77-0.24-0.82-0.64c-0.05-0.4,0.24-0.77,0.64-0.82c0.03,0,0.07-0.01,0.1-0.01
				c0.36,0,0.67,0.27,0.72,0.64C3.55,26.98,3.27,27.35,2.86,27.4z"/>
			<path d="M2.77,27.45c-0.38,0-0.72-0.29-0.77-0.68c-0.03-0.2,0.03-0.41,0.16-0.57c0.13-0.16,0.31-0.27,0.51-0.29
				c0.03,0,0.06-0.01,0.1-0.01c0.38,0,0.71,0.29,0.76,0.68c0.05,0.42-0.25,0.81-0.67,0.86l0,0C2.84,27.45,2.8,27.45,2.77,27.45z
				 M2.86,27.4L2.86,27.4L2.86,27.4z M2.78,25.98c-0.04,0-0.07,0-0.09,0.01C2.5,26,2.34,26.1,2.22,26.25
				c-0.11,0.15-0.16,0.33-0.14,0.51c0.05,0.38,0.4,0.65,0.78,0.61l0,0c0.38-0.05,0.65-0.4,0.61-0.78
				C3.42,26.24,3.13,25.98,2.78,25.98z"/>
		</g>
	</g>
</g>
</svg>
