<?xml version="1.0" encoding="utf-8"?>
<!-- Generator: Adobe Illustrator 23.0.6, SVG Export Plug-In . SVG Version: 6.00 Build 0)  -->
<svg version="1.1" id="Capa_1" xmlns="http://www.w3.org/2000/svg" xmlns:xlink="http://www.w3.org/1999/xlink" x="0px" y="0px"
	 viewBox="0 0 76 41" style="enable-background:new 0 0 76 41;" xml:space="preserve">
<style type="text/css">
	.st0{fill:#FFFFFF;}
	.st1{fill:url(#SVGID_1_);}
	.st2{fill:#1313E2;}
	.st3{fill:#0606B5;}
	.st4{fill:url(#SVGID_2_);}
	.st5{fill:#E01780;}
	.st6{fill:#24B224;}
	.st7{fill:#5E2B39;}
	.st8{fill:#EF890F;}
	.st9{fill:#DD2719;}
	.st10{fill:#D8D036;}
	.st11{fill:#26269B;}
	.st12{fill:#A22AE8;}
	.st13{fill:#626B68;}
	.st14{fill:#757A09;}
	.st15{fill:#606060;}
</style>
<g>
	<g>
		<path d="M7.95,14v3.04H7.46v-6.73h1.72c0.78,0,1.36,0.15,1.74,0.45c0.38,0.3,0.58,0.74,0.58,1.32c0,0.26-0.04,0.49-0.13,0.7
			c-0.09,0.21-0.22,0.4-0.38,0.56c-0.17,0.16-0.37,0.29-0.6,0.39c-0.23,0.1-0.5,0.17-0.79,0.2c0.08,0.05,0.14,0.11,0.2,0.19
			l2.31,2.91h-0.42c-0.05,0-0.09-0.01-0.13-0.03c-0.04-0.02-0.07-0.05-0.11-0.1l-2.15-2.73c-0.05-0.07-0.11-0.12-0.17-0.15
			C9.05,14.01,8.96,14,8.83,14H7.95z M7.95,13.64h1.17c0.3,0,0.56-0.04,0.8-0.11c0.24-0.07,0.44-0.17,0.6-0.31
			c0.16-0.13,0.29-0.29,0.37-0.48c0.09-0.19,0.13-0.4,0.13-0.63c0-0.48-0.16-0.83-0.47-1.06c-0.31-0.23-0.77-0.35-1.37-0.35H7.95
			V13.64z"/>
		<path d="M17.52,10.31v0.4h-3.54v2.72h2.95v0.39h-2.95v2.8h3.54v0.4h-4.03v-6.73H17.52z"/>
		<path d="M24.17,15.91c0.03,0,0.06,0.01,0.08,0.03l0.19,0.2c-0.14,0.15-0.29,0.28-0.46,0.4c-0.16,0.12-0.34,0.22-0.54,0.3
			c-0.2,0.08-0.41,0.15-0.64,0.19c-0.23,0.05-0.49,0.07-0.77,0.07c-0.47,0-0.89-0.08-1.28-0.24c-0.39-0.16-0.72-0.39-1-0.69
			c-0.28-0.3-0.49-0.66-0.65-1.09c-0.16-0.42-0.23-0.9-0.23-1.42c0-0.51,0.08-0.98,0.24-1.4c0.16-0.42,0.39-0.78,0.67-1.09
			c0.29-0.3,0.64-0.54,1.04-0.7c0.4-0.17,0.85-0.25,1.34-0.25c0.24,0,0.47,0.02,0.67,0.05c0.2,0.04,0.39,0.09,0.57,0.16
			c0.18,0.07,0.34,0.15,0.5,0.25c0.16,0.1,0.31,0.22,0.46,0.35l-0.15,0.21c-0.03,0.04-0.07,0.06-0.12,0.06
			c-0.03,0-0.06-0.02-0.11-0.05c-0.04-0.03-0.1-0.07-0.17-0.12c-0.07-0.05-0.15-0.1-0.25-0.16c-0.1-0.06-0.21-0.11-0.34-0.16
			c-0.13-0.05-0.29-0.09-0.46-0.12c-0.17-0.03-0.37-0.05-0.59-0.05c-0.41,0-0.78,0.07-1.13,0.21c-0.34,0.14-0.64,0.34-0.88,0.6
			s-0.44,0.58-0.58,0.95c-0.14,0.37-0.21,0.79-0.21,1.25c0,0.48,0.07,0.9,0.2,1.27c0.14,0.37,0.32,0.69,0.57,0.95
			c0.24,0.26,0.53,0.46,0.85,0.59c0.33,0.14,0.68,0.21,1.07,0.21c0.24,0,0.46-0.02,0.64-0.05c0.19-0.03,0.36-0.08,0.52-0.14
			c0.16-0.06,0.31-0.14,0.44-0.23c0.14-0.09,0.27-0.2,0.4-0.32c0.02-0.01,0.03-0.02,0.05-0.03C24.13,15.91,24.15,15.91,24.17,15.91z
			"/>
		<path d="M28.62,16.69c0.32,0,0.61-0.06,0.87-0.17c0.26-0.11,0.47-0.27,0.65-0.47c0.18-0.2,0.31-0.43,0.41-0.71
			c0.09-0.27,0.14-0.56,0.14-0.88v-4.16h0.48v4.16c0,0.37-0.06,0.72-0.18,1.04c-0.12,0.32-0.29,0.6-0.51,0.84
			c-0.22,0.24-0.49,0.43-0.8,0.56c-0.32,0.14-0.67,0.2-1.06,0.2c-0.39,0-0.75-0.07-1.06-0.2c-0.32-0.14-0.58-0.32-0.8-0.56
			c-0.22-0.24-0.39-0.52-0.51-0.84c-0.12-0.32-0.18-0.67-0.18-1.04v-4.16h0.49v4.15c0,0.31,0.05,0.61,0.14,0.88
			c0.09,0.27,0.23,0.51,0.4,0.71c0.18,0.2,0.39,0.36,0.65,0.47C28.01,16.64,28.3,16.69,28.62,16.69z"/>
		<path d="M7.95,25.74v2.71H7.46v-6.73H9.2c0.79,0,1.38,0.17,1.78,0.52c0.4,0.35,0.6,0.84,0.6,1.48c0,0.29-0.05,0.57-0.16,0.81
			c-0.11,0.25-0.27,0.46-0.47,0.64c-0.21,0.18-0.46,0.32-0.75,0.42c-0.29,0.1-0.63,0.15-1,0.15H7.95z M7.95,25.35H9.2
			c0.3,0,0.56-0.04,0.8-0.12c0.23-0.08,0.43-0.2,0.6-0.34c0.16-0.15,0.29-0.32,0.38-0.52c0.09-0.2,0.13-0.41,0.13-0.65
			c0-0.52-0.16-0.91-0.48-1.19c-0.32-0.28-0.79-0.42-1.42-0.42H7.95V25.35z"/>
		<path d="M17.16,21.72v0.4h-3.54v2.72h2.95v0.39h-2.95v2.8h3.54v0.4h-4.03v-6.73H17.16z"/>
		<path d="M19.55,25.41v3.04h-0.48v-6.73h1.72c0.78,0,1.36,0.15,1.74,0.45c0.38,0.3,0.58,0.74,0.58,1.32c0,0.26-0.04,0.49-0.13,0.7
			c-0.09,0.21-0.22,0.4-0.38,0.56c-0.17,0.16-0.37,0.29-0.6,0.39c-0.23,0.1-0.5,0.17-0.79,0.2c0.08,0.05,0.14,0.11,0.2,0.19
			l2.31,2.91h-0.42c-0.05,0-0.09-0.01-0.13-0.03c-0.04-0.02-0.07-0.05-0.11-0.1l-2.15-2.73c-0.05-0.07-0.11-0.12-0.17-0.15
			c-0.06-0.03-0.16-0.04-0.29-0.04H19.55z M19.55,25.04h1.17c0.3,0,0.56-0.04,0.8-0.11c0.24-0.07,0.44-0.17,0.6-0.31
			c0.16-0.13,0.29-0.29,0.37-0.48c0.09-0.19,0.13-0.4,0.13-0.63c0-0.48-0.16-0.83-0.47-1.06c-0.31-0.23-0.77-0.35-1.37-0.35h-1.23
			V25.04z"/>
		<path d="M30.15,28.45h-0.38c-0.04,0-0.08-0.01-0.11-0.04c-0.03-0.02-0.05-0.05-0.07-0.09l-0.79-1.95h-3.3l-0.79,1.95
			c-0.01,0.03-0.03,0.06-0.07,0.09c-0.03,0.03-0.07,0.04-0.11,0.04h-0.37l2.75-6.73h0.49L30.15,28.45z M25.65,26h3.01l-1.37-3.4
			c-0.02-0.05-0.04-0.12-0.07-0.18c-0.02-0.07-0.04-0.14-0.07-0.22c-0.02,0.08-0.04,0.15-0.07,0.22c-0.02,0.07-0.04,0.13-0.07,0.19
			L25.65,26z"/>
		<path d="M37.05,25.08c0,0.52-0.08,0.99-0.23,1.4c-0.16,0.42-0.37,0.77-0.66,1.06c-0.28,0.29-0.62,0.52-1.01,0.67
			c-0.39,0.16-0.83,0.23-1.31,0.23h-2.45v-6.73h2.45c0.48,0,0.91,0.08,1.31,0.23c0.39,0.16,0.73,0.38,1.01,0.67
			c0.28,0.29,0.5,0.64,0.66,1.06C36.97,24.1,37.05,24.57,37.05,25.08z M36.55,25.08c0-0.47-0.06-0.89-0.19-1.25
			c-0.13-0.37-0.31-0.68-0.55-0.93c-0.24-0.25-0.52-0.45-0.85-0.58s-0.7-0.2-1.11-0.2h-1.96v5.94h1.96c0.41,0,0.77-0.07,1.11-0.2
			s0.62-0.33,0.85-0.58c0.24-0.25,0.42-0.56,0.55-0.93C36.48,25.97,36.55,25.55,36.55,25.08z"/>
		<path d="M44.78,25.08c0,0.52-0.08,0.99-0.23,1.41s-0.37,0.78-0.66,1.08c-0.28,0.3-0.62,0.53-1.01,0.69
			c-0.39,0.16-0.83,0.24-1.31,0.24c-0.47,0-0.9-0.08-1.3-0.24c-0.39-0.16-0.73-0.39-1.01-0.69c-0.28-0.3-0.5-0.66-0.66-1.08
			s-0.24-0.89-0.24-1.41c0-0.52,0.08-0.99,0.24-1.41c0.16-0.42,0.38-0.78,0.66-1.08c0.28-0.3,0.62-0.53,1.01-0.7
			c0.39-0.16,0.83-0.25,1.3-0.25c0.48,0,0.91,0.08,1.31,0.24c0.39,0.16,0.73,0.4,1.01,0.7c0.28,0.3,0.5,0.66,0.66,1.09
			C44.71,24.1,44.78,24.57,44.78,25.08z M44.28,25.08c0-0.47-0.07-0.89-0.2-1.26c-0.13-0.37-0.31-0.69-0.55-0.95
			c-0.24-0.26-0.52-0.46-0.85-0.6c-0.33-0.14-0.7-0.21-1.11-0.21c-0.4,0-0.76,0.07-1.1,0.21c-0.33,0.14-0.62,0.34-0.86,0.6
			c-0.24,0.26-0.42,0.58-0.56,0.95c-0.13,0.37-0.2,0.8-0.2,1.26c0,0.47,0.07,0.89,0.2,1.27c0.13,0.37,0.32,0.69,0.56,0.95
			c0.24,0.26,0.52,0.46,0.86,0.59c0.33,0.14,0.7,0.2,1.1,0.2c0.41,0,0.78-0.07,1.11-0.2c0.33-0.14,0.62-0.33,0.85-0.59
			c0.24-0.26,0.42-0.58,0.55-0.95C44.22,25.98,44.28,25.55,44.28,25.08z"/>
		<path d="M47.17,25.41v3.04h-0.48v-6.73h1.72c0.78,0,1.36,0.15,1.74,0.45c0.38,0.3,0.58,0.74,0.58,1.32c0,0.26-0.04,0.49-0.13,0.7
			c-0.09,0.21-0.22,0.4-0.38,0.56c-0.17,0.16-0.37,0.29-0.6,0.39c-0.23,0.1-0.5,0.17-0.79,0.2c0.08,0.05,0.14,0.11,0.2,0.19
			l2.31,2.91H50.9c-0.05,0-0.09-0.01-0.13-0.03c-0.04-0.02-0.07-0.05-0.11-0.1l-2.15-2.73c-0.05-0.07-0.11-0.12-0.17-0.15
			c-0.06-0.03-0.16-0.04-0.29-0.04H47.17z M47.17,25.04h1.17c0.3,0,0.56-0.04,0.8-0.11c0.24-0.07,0.44-0.17,0.6-0.31
			c0.16-0.13,0.29-0.29,0.37-0.48c0.09-0.19,0.13-0.4,0.13-0.63c0-0.48-0.16-0.83-0.47-1.06c-0.31-0.23-0.77-0.35-1.37-0.35h-1.23
			V25.04z"/>
		<path d="M56.74,21.72v0.4H53.2v2.72h2.95v0.39H53.2v2.8h3.54v0.4h-4.03v-6.73H56.74z"/>
		<path d="M61.75,22.54c-0.03,0.05-0.07,0.08-0.12,0.08c-0.04,0-0.09-0.03-0.16-0.09c-0.07-0.06-0.15-0.12-0.26-0.19
			c-0.11-0.07-0.25-0.14-0.42-0.2c-0.17-0.06-0.37-0.09-0.62-0.09s-0.46,0.03-0.65,0.1c-0.19,0.07-0.34,0.17-0.47,0.29
			c-0.13,0.12-0.22,0.26-0.29,0.42s-0.1,0.32-0.1,0.5c0,0.23,0.05,0.42,0.14,0.57c0.1,0.15,0.22,0.28,0.38,0.38
			c0.16,0.1,0.34,0.19,0.54,0.26c0.2,0.07,0.41,0.14,0.62,0.21c0.21,0.07,0.42,0.15,0.62,0.23c0.2,0.08,0.38,0.19,0.54,0.32
			c0.16,0.13,0.29,0.28,0.38,0.47c0.1,0.19,0.14,0.42,0.14,0.69c0,0.28-0.05,0.55-0.14,0.8c-0.1,0.25-0.24,0.46-0.42,0.65
			c-0.18,0.18-0.41,0.33-0.67,0.43c-0.27,0.11-0.57,0.16-0.91,0.16c-0.44,0-0.83-0.08-1.15-0.24c-0.32-0.16-0.6-0.37-0.84-0.64
			l0.13-0.21c0.04-0.05,0.08-0.07,0.13-0.07c0.03,0,0.06,0.02,0.11,0.06c0.04,0.04,0.1,0.08,0.16,0.14
			c0.06,0.06,0.14,0.12,0.23,0.18c0.09,0.06,0.19,0.12,0.31,0.18c0.12,0.06,0.25,0.1,0.4,0.14c0.15,0.04,0.33,0.06,0.52,0.06
			c0.27,0,0.5-0.04,0.71-0.12c0.21-0.08,0.39-0.19,0.53-0.33c0.14-0.14,0.25-0.3,0.33-0.5c0.08-0.19,0.11-0.4,0.11-0.62
			c0-0.24-0.05-0.43-0.14-0.59c-0.1-0.15-0.22-0.28-0.38-0.38c-0.16-0.1-0.34-0.19-0.54-0.26c-0.2-0.07-0.41-0.14-0.62-0.2
			c-0.21-0.07-0.42-0.14-0.62-0.22c-0.2-0.08-0.38-0.19-0.54-0.32c-0.16-0.13-0.29-0.29-0.38-0.48c-0.1-0.19-0.14-0.43-0.14-0.72
			c0-0.23,0.04-0.44,0.13-0.65c0.09-0.21,0.21-0.39,0.38-0.55c0.17-0.16,0.37-0.29,0.61-0.38c0.24-0.1,0.52-0.14,0.83-0.14
			c0.35,0,0.66,0.06,0.94,0.17s0.53,0.28,0.76,0.51L61.75,22.54z"/>
		<path d="M12.98,36.49c0,0.52-0.08,0.99-0.23,1.4c-0.16,0.42-0.37,0.77-0.66,1.06c-0.28,0.29-0.62,0.52-1.01,0.67
			s-0.83,0.23-1.31,0.23H7.32v-6.73h2.45c0.48,0,0.91,0.08,1.31,0.23c0.39,0.16,0.73,0.38,1.01,0.67c0.28,0.29,0.5,0.64,0.66,1.06
			C12.9,35.51,12.98,35.97,12.98,36.49z M12.48,36.49c0-0.47-0.06-0.89-0.19-1.25c-0.13-0.37-0.31-0.68-0.55-0.93
			c-0.24-0.25-0.52-0.45-0.85-0.58c-0.33-0.13-0.7-0.2-1.11-0.2H7.81v5.94h1.96c0.41,0,0.77-0.07,1.11-0.2
			c0.33-0.13,0.62-0.33,0.85-0.58c0.24-0.25,0.42-0.56,0.55-0.93C12.41,37.38,12.48,36.96,12.48,36.49z"/>
		<path d="M18.75,33.13v0.4h-3.54v2.72h2.95v0.39h-2.95v2.8h3.54v0.4h-4.03v-6.73H18.75z"/>
		<path d="M27.4,38.72c0.03,0,0.06,0.01,0.08,0.03l0.19,0.2c-0.14,0.15-0.29,0.28-0.46,0.4c-0.16,0.12-0.34,0.22-0.54,0.3
			c-0.2,0.08-0.41,0.15-0.64,0.19c-0.23,0.05-0.49,0.07-0.77,0.07c-0.47,0-0.89-0.08-1.28-0.24c-0.39-0.16-0.72-0.39-1-0.69
			s-0.49-0.66-0.65-1.09c-0.16-0.42-0.23-0.9-0.23-1.42c0-0.51,0.08-0.98,0.24-1.4c0.16-0.42,0.39-0.78,0.67-1.09
			c0.29-0.3,0.64-0.54,1.04-0.7c0.4-0.17,0.85-0.25,1.34-0.25c0.24,0,0.47,0.02,0.67,0.05c0.2,0.04,0.39,0.09,0.57,0.16
			c0.18,0.07,0.34,0.15,0.5,0.25c0.16,0.1,0.31,0.22,0.46,0.35l-0.15,0.21c-0.03,0.04-0.07,0.06-0.12,0.06
			c-0.03,0-0.06-0.02-0.11-0.05c-0.04-0.03-0.1-0.07-0.17-0.12c-0.07-0.05-0.15-0.1-0.25-0.16c-0.1-0.06-0.21-0.11-0.34-0.16
			c-0.13-0.05-0.29-0.09-0.46-0.12c-0.17-0.03-0.37-0.05-0.59-0.05c-0.41,0-0.78,0.07-1.13,0.21c-0.34,0.14-0.64,0.34-0.88,0.6
			s-0.44,0.58-0.58,0.95c-0.14,0.37-0.21,0.79-0.21,1.25c0,0.48,0.07,0.9,0.2,1.27c0.14,0.37,0.32,0.69,0.57,0.95
			c0.24,0.26,0.53,0.46,0.85,0.59c0.33,0.14,0.68,0.21,1.07,0.21c0.24,0,0.46-0.02,0.64-0.05c0.19-0.03,0.36-0.08,0.52-0.14
			c0.16-0.06,0.31-0.14,0.44-0.23c0.14-0.09,0.27-0.2,0.4-0.32c0.02-0.01,0.03-0.02,0.05-0.03C27.36,38.73,27.38,38.72,27.4,38.72z"
			/>
		<path d="M34.43,39.85h-0.38c-0.04,0-0.08-0.01-0.11-0.04c-0.03-0.02-0.05-0.05-0.07-0.09l-0.79-1.95h-3.3l-0.79,1.95
			c-0.01,0.03-0.03,0.06-0.07,0.09c-0.03,0.03-0.07,0.04-0.11,0.04h-0.37l2.75-6.73h0.49L34.43,39.85z M29.93,37.41h3.01l-1.37-3.4
			c-0.02-0.05-0.04-0.12-0.07-0.18c-0.02-0.07-0.04-0.14-0.07-0.22c-0.02,0.08-0.04,0.15-0.07,0.22c-0.02,0.07-0.04,0.13-0.07,0.19
			L29.93,37.41z"/>
		<path d="M36.15,39.44h3.19v0.41h-3.67v-6.73h0.48V39.44z"/>
		<path d="M46.32,36.49c0,0.52-0.08,0.99-0.23,1.41s-0.37,0.78-0.66,1.08c-0.28,0.3-0.62,0.53-1.01,0.69
			c-0.39,0.16-0.83,0.24-1.31,0.24c-0.47,0-0.9-0.08-1.3-0.24c-0.39-0.16-0.73-0.39-1.01-0.69c-0.28-0.3-0.5-0.66-0.66-1.08
			c-0.16-0.42-0.24-0.89-0.24-1.41c0-0.52,0.08-0.99,0.24-1.41c0.16-0.42,0.38-0.78,0.66-1.08c0.28-0.3,0.62-0.53,1.01-0.7
			c0.39-0.16,0.83-0.25,1.3-0.25c0.48,0,0.91,0.08,1.31,0.24c0.39,0.16,0.73,0.4,1.01,0.7c0.28,0.3,0.5,0.66,0.66,1.09
			C46.24,35.5,46.32,35.97,46.32,36.49z M45.82,36.49c0-0.47-0.07-0.89-0.2-1.26c-0.13-0.37-0.31-0.69-0.55-0.95
			c-0.24-0.26-0.52-0.46-0.85-0.6c-0.33-0.14-0.7-0.21-1.11-0.21c-0.4,0-0.76,0.07-1.1,0.21c-0.33,0.14-0.62,0.34-0.86,0.6
			c-0.24,0.26-0.42,0.58-0.56,0.95c-0.13,0.37-0.2,0.8-0.2,1.26c0,0.47,0.07,0.89,0.2,1.27c0.13,0.37,0.32,0.69,0.56,0.95
			c0.24,0.26,0.52,0.46,0.86,0.59c0.33,0.14,0.7,0.2,1.1,0.2c0.41,0,0.78-0.07,1.11-0.2c0.33-0.14,0.62-0.33,0.85-0.59
			c0.24-0.26,0.42-0.58,0.55-0.95C45.75,37.38,45.82,36.96,45.82,36.49z"/>
		<path d="M48.7,36.81v3.04h-0.48v-6.73h1.72c0.78,0,1.36,0.15,1.74,0.45c0.38,0.3,0.58,0.74,0.58,1.32c0,0.26-0.04,0.49-0.13,0.7
			c-0.09,0.21-0.22,0.4-0.38,0.56c-0.17,0.16-0.37,0.29-0.6,0.39c-0.23,0.1-0.5,0.17-0.79,0.2c0.08,0.05,0.14,0.11,0.2,0.19
			l2.31,2.91h-0.42c-0.05,0-0.09-0.01-0.13-0.03c-0.04-0.02-0.07-0.05-0.11-0.1L50.04,37c-0.05-0.07-0.11-0.12-0.17-0.15
			c-0.06-0.03-0.16-0.04-0.29-0.04H48.7z M48.7,36.45h1.17c0.3,0,0.56-0.04,0.8-0.11c0.24-0.07,0.44-0.17,0.6-0.31
			c0.16-0.13,0.29-0.29,0.37-0.48c0.09-0.19,0.13-0.4,0.13-0.63c0-0.48-0.16-0.83-0.47-1.06c-0.31-0.23-0.77-0.35-1.37-0.35H48.7
			V36.45z"/>
	</g>
	<g>
		<ellipse cx="39.25" cy="14.31" rx="0.8" ry="0.77"/>
		<path d="M1.99,14.05c-0.18,0-0.32-0.14-0.32-0.31V2.72c0-0.17,0.14-0.31,0.32-0.31h15.56c0.18,0,0.32,0.14,0.32,0.31
			c0,0.17-0.14,0.31-0.32,0.31H2.31v10.71C2.31,13.91,2.17,14.05,1.99,14.05z"/>
		<path d="M39.06,14.11c-0.18,0-0.32-0.14-0.32-0.31V2.91H21.46c-0.18,0-0.32-0.14-0.32-0.31c0-0.17,0.14-0.31,0.32-0.31h17.6
			c0.18,0,0.32,0.14,0.32,0.31v11.2C39.38,13.97,39.24,14.11,39.06,14.11z"/>
		<path class="st13" d="M2.91,16.18H1.06c-0.29,0-0.52-0.23-0.52-0.52v-0.07c0-0.29,0.23-0.52,0.52-0.52h1.85
			c0.29,0,0.52,0.23,0.52,0.52v0.07C3.43,15.94,3.2,16.18,2.91,16.18z"/>
		<path class="st13" d="M18.93,3.47V1.74c0-0.3,0.24-0.53,0.53-0.53h0.09c0.3,0,0.53,0.24,0.53,0.53v1.73c0,0.3-0.24,0.53-0.53,0.53
			h-0.09C19.17,4,18.93,3.76,18.93,3.47z"/>
		<path d="M1.98,27.68c-0.18,0-0.33-0.14-0.33-0.32v-9.82c0-0.18,0.15-0.32,0.33-0.32s0.33,0.14,0.33,0.32v9.82
			C2.3,27.54,2.16,27.68,1.98,27.68z"/>
		<g>
			<path d="M2.07,28.28c-0.44,0.05-0.84-0.25-0.89-0.67c-0.06-0.42,0.25-0.81,0.69-0.86c0.04,0,0.07-0.01,0.11-0.01
				c0.39,0,0.73,0.29,0.78,0.67C2.81,27.84,2.5,28.22,2.07,28.28z"/>
			<path d="M1.97,28.32c-0.42,0-0.78-0.3-0.83-0.71c-0.03-0.21,0.03-0.43,0.17-0.6c0.14-0.17,0.34-0.28,0.56-0.31
				c0.03,0,0.07-0.01,0.11-0.01c0.42,0,0.77,0.31,0.82,0.71c0.06,0.44-0.27,0.85-0.73,0.91l0,0C2.04,28.32,2,28.32,1.97,28.32z
				 M2.07,28.28L2.07,28.28L2.07,28.28z M1.98,26.78c-0.04,0-0.07,0-0.1,0.01c-0.2,0.02-0.38,0.12-0.5,0.28
				c-0.12,0.15-0.18,0.35-0.15,0.54c0.05,0.4,0.43,0.69,0.84,0.63l0,0c0.41-0.05,0.71-0.42,0.66-0.82
				C2.67,27.06,2.35,26.79,1.98,26.78z"/>
		</g>
	</g>
</g>
</svg>
