<?xml version="1.0" encoding="utf-8"?>
<!-- Generator: Adobe Illustrator 23.0.6, SVG Export Plug-In . SVG Version: 6.00 Build 0)  -->
<svg version="1.1" id="Capa_1" xmlns="http://www.w3.org/2000/svg" xmlns:xlink="http://www.w3.org/1999/xlink" x="0px" y="0px"
	 viewBox="0 0 76 30" style="enable-background:new 0 0 76 30;" xml:space="preserve">
<style type="text/css">
	.st0{fill:#FFFFFF;}
	.st1{fill:url(#SVGID_1_);}
	.st2{fill:#1313E2;}
	.st3{fill:#0606B5;}
	.st4{fill:url(#SVGID_2_);}
	.st5{fill:#E01780;}
	.st6{fill:#24B224;}
	.st7{fill:#5E2B39;}
	.st8{fill:#EF890F;}
	.st9{fill:#DD2719;}
	.st10{fill:#D8D036;}
	.st11{fill:#26269B;}
	.st12{fill:#A22AE8;}
	.st13{fill:#626B68;}
	.st14{fill:#757A09;}
	.st15{fill:#606060;}
</style>
<g>
	<g>
		<path d="M11.87,15.26c0.03,0,0.06,0.01,0.08,0.03l0.18,0.19c-0.13,0.14-0.28,0.27-0.43,0.38c-0.16,0.11-0.33,0.21-0.51,0.29
			s-0.39,0.14-0.61,0.18c-0.22,0.04-0.46,0.07-0.73,0.07c-0.44,0-0.85-0.08-1.21-0.23c-0.37-0.15-0.68-0.37-0.94-0.66
			s-0.47-0.63-0.61-1.03c-0.15-0.4-0.22-0.85-0.22-1.34c0-0.48,0.08-0.92,0.23-1.32s0.36-0.74,0.64-1.03
			c0.27-0.29,0.6-0.51,0.99-0.67c0.38-0.16,0.8-0.24,1.27-0.24c0.23,0,0.44,0.02,0.63,0.05c0.19,0.03,0.37,0.08,0.54,0.15
			c0.17,0.06,0.32,0.14,0.47,0.24c0.15,0.1,0.29,0.21,0.43,0.33l-0.14,0.2c-0.02,0.04-0.06,0.05-0.11,0.05
			c-0.03,0-0.06-0.02-0.1-0.05c-0.04-0.03-0.1-0.07-0.16-0.12c-0.06-0.05-0.14-0.1-0.23-0.15c-0.09-0.06-0.2-0.11-0.33-0.15
			c-0.13-0.05-0.27-0.08-0.44-0.12c-0.17-0.03-0.35-0.05-0.56-0.05c-0.39,0-0.74,0.07-1.07,0.2s-0.6,0.32-0.84,0.57
			c-0.23,0.25-0.42,0.55-0.55,0.9c-0.13,0.35-0.2,0.75-0.2,1.18c0,0.45,0.06,0.85,0.19,1.21s0.31,0.65,0.54,0.9
			c0.23,0.24,0.5,0.43,0.81,0.56s0.65,0.2,1.01,0.2c0.23,0,0.43-0.01,0.61-0.04c0.18-0.03,0.34-0.07,0.49-0.13
			c0.15-0.06,0.29-0.13,0.42-0.22c0.13-0.09,0.26-0.19,0.38-0.31c0.01-0.01,0.03-0.02,0.04-0.03S11.85,15.26,11.87,15.26z"/>
		<path d="M18.53,16.33h-0.36c-0.04,0-0.08-0.01-0.1-0.03c-0.03-0.02-0.05-0.05-0.06-0.09l-0.75-1.85h-3.13l-0.75,1.85
			c-0.01,0.03-0.03,0.06-0.06,0.08c-0.03,0.02-0.07,0.04-0.11,0.04h-0.35l2.6-6.37h0.46L18.53,16.33z M14.27,14.02h2.85l-1.3-3.22
			c-0.02-0.05-0.04-0.11-0.06-0.17c-0.02-0.06-0.04-0.13-0.06-0.21c-0.02,0.07-0.04,0.14-0.06,0.21c-0.02,0.06-0.04,0.12-0.06,0.18
			L14.27,14.02z"/>
		<path d="M20.15,15.94h3.02v0.39h-3.48V9.96h0.46V15.94z"/>
		<path d="M28.27,9.96v0.38h-3.35v2.57h2.79v0.37h-2.79v2.65h3.35v0.38h-3.82V9.96H28.27z"/>
		<path d="M11.06,20.76v0.38H7.71v2.68h2.9v0.38h-2.9v2.92H7.24v-6.37H11.06z"/>
		<path d="M16.82,27.13h-0.36c-0.04,0-0.08-0.01-0.1-0.03c-0.03-0.02-0.05-0.05-0.06-0.09l-0.75-1.85h-3.13l-0.75,1.85
			c-0.01,0.03-0.03,0.06-0.06,0.08c-0.03,0.02-0.07,0.04-0.11,0.04h-0.35l2.6-6.37h0.46L16.82,27.13z M12.56,24.81h2.85l-1.3-3.22
			c-0.02-0.05-0.04-0.11-0.06-0.17c-0.02-0.06-0.04-0.13-0.06-0.21c-0.02,0.07-0.04,0.14-0.06,0.21c-0.02,0.06-0.04,0.12-0.06,0.18
			L12.56,24.81z"/>
		<path d="M22.48,26.06c0.03,0,0.06,0.01,0.08,0.03l0.18,0.19c-0.13,0.14-0.28,0.27-0.43,0.38c-0.16,0.11-0.33,0.21-0.51,0.29
			s-0.39,0.14-0.61,0.18c-0.22,0.04-0.46,0.07-0.73,0.07c-0.44,0-0.85-0.08-1.21-0.23c-0.37-0.15-0.68-0.37-0.94-0.66
			s-0.47-0.63-0.61-1.03c-0.15-0.4-0.22-0.85-0.22-1.34c0-0.48,0.08-0.92,0.23-1.32s0.36-0.74,0.64-1.03
			c0.27-0.29,0.6-0.51,0.99-0.67c0.38-0.16,0.8-0.24,1.27-0.24c0.23,0,0.44,0.02,0.63,0.05c0.19,0.03,0.37,0.08,0.54,0.15
			c0.17,0.06,0.32,0.14,0.47,0.24c0.15,0.1,0.29,0.21,0.43,0.33l-0.14,0.2c-0.02,0.04-0.06,0.05-0.11,0.05
			c-0.03,0-0.06-0.02-0.1-0.05c-0.04-0.03-0.1-0.07-0.16-0.12c-0.06-0.05-0.14-0.1-0.23-0.15c-0.09-0.06-0.2-0.11-0.33-0.15
			c-0.13-0.05-0.27-0.08-0.44-0.12c-0.17-0.03-0.35-0.05-0.56-0.05c-0.39,0-0.74,0.07-1.07,0.2s-0.6,0.32-0.84,0.57
			c-0.23,0.25-0.42,0.55-0.55,0.9c-0.13,0.35-0.2,0.75-0.2,1.18c0,0.45,0.06,0.85,0.19,1.21s0.31,0.65,0.54,0.9
			c0.23,0.24,0.5,0.43,0.81,0.56s0.65,0.2,1.01,0.2c0.23,0,0.43-0.01,0.61-0.04c0.18-0.03,0.34-0.07,0.49-0.13
			c0.15-0.06,0.29-0.13,0.42-0.22c0.13-0.09,0.26-0.19,0.38-0.31c0.01-0.01,0.03-0.02,0.04-0.03S22.47,26.06,22.48,26.06z"/>
		<path d="M28.98,26.06c0.03,0,0.06,0.01,0.08,0.03l0.18,0.19c-0.13,0.14-0.28,0.27-0.43,0.38c-0.16,0.11-0.33,0.21-0.51,0.29
			s-0.39,0.14-0.61,0.18c-0.22,0.04-0.46,0.07-0.73,0.07c-0.44,0-0.85-0.08-1.21-0.23c-0.37-0.15-0.68-0.37-0.94-0.66
			s-0.47-0.63-0.61-1.03c-0.15-0.4-0.22-0.85-0.22-1.34c0-0.48,0.08-0.92,0.23-1.32s0.36-0.74,0.64-1.03
			c0.27-0.29,0.6-0.51,0.99-0.67c0.38-0.16,0.8-0.24,1.27-0.24c0.23,0,0.44,0.02,0.63,0.05c0.19,0.03,0.37,0.08,0.54,0.15
			c0.17,0.06,0.32,0.14,0.47,0.24c0.15,0.1,0.29,0.21,0.43,0.33l-0.14,0.2c-0.02,0.04-0.06,0.05-0.11,0.05
			c-0.03,0-0.06-0.02-0.1-0.05c-0.04-0.03-0.1-0.07-0.16-0.12c-0.06-0.05-0.14-0.1-0.23-0.15c-0.09-0.06-0.2-0.11-0.33-0.15
			c-0.13-0.05-0.27-0.08-0.44-0.12c-0.17-0.03-0.35-0.05-0.56-0.05c-0.39,0-0.74,0.07-1.07,0.2s-0.6,0.32-0.84,0.57
			c-0.23,0.25-0.42,0.55-0.55,0.9c-0.13,0.35-0.2,0.75-0.2,1.18c0,0.45,0.06,0.85,0.19,1.21s0.31,0.65,0.54,0.9
			c0.23,0.24,0.5,0.43,0.81,0.56s0.65,0.2,1.01,0.2c0.23,0,0.43-0.01,0.61-0.04c0.18-0.03,0.34-0.07,0.49-0.13
			c0.15-0.06,0.29-0.13,0.42-0.22c0.13-0.09,0.26-0.19,0.38-0.31c0.01-0.01,0.03-0.02,0.04-0.03S28.96,26.06,28.98,26.06z"/>
		<path d="M31.47,27.13h-0.46v-6.37h0.46V27.13z"/>
		<path d="M39.37,23.94c0,0.49-0.07,0.94-0.22,1.34c-0.15,0.4-0.35,0.74-0.62,1.03c-0.27,0.28-0.59,0.5-0.96,0.66
			c-0.37,0.15-0.78,0.23-1.24,0.23c-0.45,0-0.86-0.08-1.23-0.23s-0.69-0.37-0.96-0.66c-0.27-0.28-0.47-0.63-0.62-1.03
			s-0.22-0.85-0.22-1.34c0-0.49,0.07-0.93,0.22-1.33s0.36-0.74,0.62-1.03c0.27-0.28,0.59-0.5,0.96-0.66
			c0.37-0.16,0.78-0.23,1.23-0.23c0.45,0,0.87,0.08,1.24,0.23c0.37,0.15,0.69,0.37,0.96,0.66c0.27,0.29,0.47,0.63,0.62,1.03
			C39.3,23.01,39.37,23.45,39.37,23.94z M38.9,23.94c0-0.44-0.06-0.84-0.18-1.2s-0.3-0.65-0.52-0.9c-0.22-0.25-0.49-0.43-0.81-0.57
			c-0.31-0.13-0.66-0.2-1.05-0.2c-0.38,0-0.72,0.07-1.04,0.2c-0.31,0.13-0.58,0.32-0.81,0.57c-0.23,0.25-0.4,0.55-0.53,0.9
			c-0.13,0.35-0.19,0.75-0.19,1.2c0,0.45,0.06,0.85,0.19,1.2c0.12,0.35,0.3,0.65,0.53,0.9c0.23,0.25,0.5,0.43,0.81,0.56
			s0.66,0.19,1.04,0.19c0.38,0,0.73-0.06,1.05-0.19s0.58-0.32,0.81-0.56s0.4-0.54,0.52-0.9S38.9,24.39,38.9,23.94z M37.65,19.16
			l-1.31,0.97c-0.03,0.02-0.06,0.04-0.08,0.04s-0.06,0.01-0.09,0.01h-0.31l1.02-0.93c0.04-0.04,0.08-0.06,0.12-0.08
			c0.04-0.01,0.09-0.02,0.16-0.02H37.65z"/>
		<path d="M41.36,20.78c0.02,0.01,0.05,0.03,0.08,0.07l4.12,5.52c-0.01-0.09-0.01-0.18-0.01-0.26v-5.34h0.41v6.37h-0.22
			c-0.07,0-0.12-0.03-0.17-0.09l-4.14-5.52c0.01,0.09,0.01,0.17,0.01,0.26v5.36h-0.4v-6.37h0.23C41.3,20.76,41.33,20.77,41.36,20.78
			z"/>
	</g>
	<g>
		<circle cx="36.23" cy="13.74" r="0.73"/>
		<path d="M2.15,13.5c-0.16,0-0.29-0.13-0.29-0.29V2.77c0-0.16,0.13-0.29,0.29-0.29h14.23c0.16,0,0.29,0.13,0.29,0.29
			c0,0.16-0.13,0.29-0.29,0.29H2.45V13.2C2.45,13.37,2.31,13.5,2.15,13.5z"/>
		<path d="M36.05,13.56c-0.16,0-0.29-0.13-0.29-0.29V2.96h-15.8c-0.16,0-0.29-0.13-0.29-0.29c0-0.16,0.13-0.29,0.29-0.29h16.1
			c0.16,0,0.29,0.13,0.29,0.29v10.6C36.35,13.42,36.22,13.56,36.05,13.56z"/>
		<path class="st6" d="M3.05,15.51H1.23c-0.23,0-0.42-0.19-0.42-0.42v-0.23c0-0.23,0.19-0.42,0.42-0.42h1.82
			c0.23,0,0.42,0.19,0.42,0.42v0.23C3.47,15.33,3.28,15.51,3.05,15.51z"/>
		<path class="st6" d="M17.64,3.57V1.75c0-0.23,0.19-0.42,0.42-0.42h0.23c0.23,0,0.42,0.19,0.42,0.42v1.82
			c0,0.23-0.19,0.42-0.42,0.42h-0.23C17.83,3.99,17.64,3.8,17.64,3.57z"/>
		<path d="M2.14,26.4c-0.17,0-0.3-0.13-0.3-0.3v-9.3c0-0.17,0.13-0.3,0.3-0.3s0.3,0.13,0.3,0.3v9.3C2.44,26.26,2.3,26.4,2.14,26.4z"
			/>
		<g>
			<path d="M2.22,26.97c-0.4,0.05-0.76-0.23-0.81-0.63c-0.05-0.4,0.23-0.76,0.63-0.81c0.03,0,0.07-0.01,0.1-0.01
				c0.36,0,0.67,0.27,0.72,0.64C2.9,26.55,2.62,26.91,2.22,26.97z"/>
			<path d="M2.13,27.01c-0.38,0-0.71-0.28-0.76-0.67c-0.03-0.2,0.03-0.4,0.15-0.57c0.13-0.16,0.31-0.27,0.51-0.29
				c0.03,0,0.06-0.01,0.1-0.01c0.38,0,0.7,0.29,0.75,0.67c0.05,0.42-0.25,0.8-0.66,0.86l0,0C2.19,27.01,2.16,27.01,2.13,27.01z
				 M2.22,26.97L2.22,26.97L2.22,26.97z M2.14,25.55c-0.04,0-0.07,0-0.09,0.01c-0.18,0.02-0.35,0.12-0.46,0.26
				c-0.11,0.15-0.16,0.33-0.14,0.51c0.05,0.38,0.39,0.65,0.77,0.6l0,0c0.38-0.05,0.65-0.39,0.6-0.77
				C2.77,25.81,2.48,25.55,2.14,25.55z"/>
		</g>
	</g>
</g>
</svg>
