<?xml version="1.0" encoding="utf-8"?>
<!-- Generator: Adobe Illustrator 23.0.6, SVG Export Plug-In . SVG Version: 6.00 Build 0)  -->
<svg version="1.1" id="Capa_1" xmlns="http://www.w3.org/2000/svg" xmlns:xlink="http://www.w3.org/1999/xlink" x="0px" y="0px"
	 viewBox="0 0 76 30" style="enable-background:new 0 0 76 30;" xml:space="preserve">
<style type="text/css">
	.st0{fill:#FFFFFF;}
	.st1{fill:url(#SVGID_1_);}
	.st2{fill:#1313E2;}
	.st3{fill:#0606B5;}
	.st4{fill:url(#SVGID_2_);}
	.st5{fill:#E01780;}
	.st6{fill:#24B224;}
	.st7{fill:#5E2B39;}
	.st8{fill:#EF890F;}
	.st9{fill:#DD2719;}
	.st10{fill:#D8D036;}
	.st11{fill:#26269B;}
	.st12{fill:#A22AE8;}
	.st13{fill:#626B68;}
	.st14{fill:#757A09;}
	.st15{fill:#606060;}
</style>
<g>
	<g>
		<path d="M11.5,15.4c0.03,0,0.05,0.01,0.07,0.03l0.17,0.18c-0.12,0.13-0.26,0.25-0.4,0.36c-0.15,0.11-0.3,0.2-0.48,0.27
			c-0.17,0.07-0.36,0.13-0.57,0.17c-0.21,0.04-0.43,0.06-0.68,0.06c-0.41,0-0.79-0.07-1.13-0.22S7.84,15.9,7.6,15.63
			c-0.25-0.26-0.44-0.58-0.57-0.96c-0.14-0.38-0.21-0.79-0.21-1.25c0-0.45,0.07-0.86,0.21-1.24s0.34-0.69,0.6-0.96
			s0.56-0.47,0.92-0.62s0.75-0.22,1.18-0.22c0.22,0,0.41,0.02,0.59,0.05c0.18,0.03,0.35,0.08,0.5,0.14c0.16,0.06,0.3,0.14,0.44,0.23
			s0.27,0.19,0.4,0.31l-0.13,0.19c-0.02,0.03-0.06,0.05-0.11,0.05c-0.03,0-0.06-0.01-0.1-0.04s-0.09-0.07-0.15-0.11
			c-0.06-0.04-0.13-0.09-0.22-0.14c-0.08-0.05-0.19-0.1-0.3-0.14c-0.12-0.04-0.25-0.08-0.41-0.11c-0.15-0.03-0.33-0.04-0.53-0.04
			c-0.36,0-0.69,0.06-1,0.19c-0.3,0.13-0.56,0.3-0.78,0.53s-0.39,0.51-0.51,0.84c-0.12,0.33-0.18,0.7-0.18,1.11
			c0,0.42,0.06,0.8,0.18,1.13c0.12,0.33,0.29,0.61,0.5,0.84s0.46,0.4,0.75,0.53s0.6,0.18,0.94,0.18c0.21,0,0.4-0.01,0.57-0.04
			s0.32-0.07,0.46-0.13c0.14-0.06,0.27-0.13,0.39-0.21c0.12-0.08,0.24-0.18,0.36-0.29c0.01-0.01,0.03-0.02,0.04-0.03
			S11.48,15.4,11.5,15.4z"/>
		<path d="M13.68,16.03h2.82v0.37h-3.25v-5.95h0.43V16.03z"/>
		<path d="M18.29,16.4h-0.43v-5.95h0.43V16.4z"/>
		<path d="M23.33,14.92c0.02-0.04,0.03-0.09,0.05-0.13c0.02-0.04,0.04-0.08,0.06-0.12l2.34-4.13c0.02-0.04,0.04-0.06,0.07-0.07
			c0.02-0.01,0.05-0.01,0.09-0.01h0.3v5.95h-0.38v-5.07c0-0.07,0-0.15,0.01-0.23l-2.34,4.16c-0.04,0.07-0.09,0.11-0.17,0.11H23.3
			c-0.07,0-0.13-0.04-0.17-0.11l-2.41-4.16c0.01,0.08,0.01,0.16,0.01,0.24v5.07h-0.38v-5.95h0.29c0.04,0,0.07,0,0.09,0.01
			c0.02,0.01,0.05,0.03,0.07,0.07l2.4,4.14C23.27,14.74,23.3,14.83,23.33,14.92z"/>
		<path d="M32.64,16.4h-0.33c-0.04,0-0.07-0.01-0.1-0.03c-0.03-0.02-0.04-0.05-0.06-0.08l-0.7-1.73h-2.92l-0.7,1.73
			c-0.01,0.03-0.03,0.06-0.06,0.08c-0.03,0.02-0.06,0.03-0.1,0.03h-0.33l2.43-5.95h0.43L32.64,16.4z M28.66,14.24h2.67l-1.22-3.01
			c-0.02-0.05-0.04-0.1-0.06-0.16s-0.04-0.12-0.06-0.19c-0.02,0.07-0.04,0.13-0.06,0.19s-0.04,0.12-0.06,0.17L28.66,14.24z"/>
		<path d="M11.06,20.54v0.37H8.97v5.58H8.54v-5.58h-2.1v-0.37H11.06z"/>
		<path d="M12.83,26.49H12.4v-5.95h0.43V26.49z"/>
		<path d="M18.92,20.54v0.15c0,0.06-0.02,0.12-0.06,0.17l-3.78,5.27h3.8v0.36h-4.37v-0.16c0-0.05,0.02-0.1,0.05-0.15l3.78-5.29
			h-3.73v-0.36H18.92z"/>
		<path d="M24.86,26.49h-0.33c-0.04,0-0.07-0.01-0.1-0.03c-0.03-0.02-0.04-0.05-0.06-0.08l-0.7-1.73h-2.92l-0.7,1.73
			c-0.01,0.03-0.03,0.06-0.06,0.08c-0.03,0.02-0.06,0.03-0.1,0.03h-0.33L22,20.54h0.43L24.86,26.49z M20.88,24.33h2.67l-1.22-3.01
			c-0.02-0.05-0.04-0.1-0.06-0.16s-0.04-0.12-0.06-0.19c-0.02,0.07-0.04,0.13-0.06,0.19s-0.04,0.12-0.06,0.17L20.88,24.33z"/>
		<path d="M30.15,25.49c0.03,0,0.05,0.01,0.07,0.03l0.17,0.18c-0.12,0.13-0.26,0.25-0.4,0.36c-0.15,0.11-0.3,0.2-0.48,0.27
			c-0.17,0.07-0.36,0.13-0.57,0.17c-0.21,0.04-0.43,0.06-0.68,0.06c-0.41,0-0.79-0.07-1.13-0.22s-0.64-0.35-0.88-0.61
			c-0.25-0.26-0.44-0.58-0.57-0.96c-0.14-0.38-0.21-0.79-0.21-1.25c0-0.45,0.07-0.86,0.21-1.24s0.34-0.69,0.6-0.96
			s0.56-0.47,0.92-0.62s0.75-0.22,1.18-0.22c0.22,0,0.41,0.02,0.59,0.05c0.18,0.03,0.35,0.08,0.5,0.14c0.16,0.06,0.3,0.14,0.44,0.23
			s0.27,0.19,0.4,0.31l-0.13,0.19c-0.02,0.03-0.06,0.05-0.11,0.05c-0.03,0-0.06-0.01-0.1-0.04s-0.09-0.07-0.15-0.11
			c-0.06-0.04-0.13-0.09-0.22-0.14c-0.08-0.05-0.19-0.1-0.3-0.14c-0.12-0.04-0.25-0.08-0.41-0.11c-0.15-0.03-0.33-0.04-0.53-0.04
			c-0.36,0-0.69,0.06-1,0.19c-0.3,0.13-0.56,0.3-0.78,0.53s-0.39,0.51-0.51,0.84c-0.12,0.33-0.18,0.7-0.18,1.11
			c0,0.42,0.06,0.8,0.18,1.13c0.12,0.33,0.29,0.61,0.5,0.84s0.46,0.4,0.75,0.53s0.6,0.18,0.94,0.18c0.21,0,0.4-0.01,0.57-0.04
			s0.32-0.07,0.46-0.13c0.14-0.06,0.27-0.13,0.39-0.21c0.12-0.08,0.24-0.18,0.36-0.29c0.01-0.01,0.03-0.02,0.04-0.03
			S30.14,25.49,30.15,25.49z"/>
		<path d="M32.49,26.49h-0.43v-5.95h0.43V26.49z"/>
		<path d="M39.87,23.51c0,0.46-0.07,0.88-0.21,1.25c-0.14,0.38-0.33,0.69-0.58,0.96c-0.25,0.26-0.55,0.47-0.9,0.61
			s-0.73,0.22-1.16,0.22c-0.42,0-0.8-0.07-1.15-0.22s-0.65-0.35-0.9-0.61c-0.25-0.26-0.44-0.58-0.58-0.96
			c-0.14-0.37-0.21-0.79-0.21-1.25c0-0.46,0.07-0.87,0.21-1.25c0.14-0.37,0.33-0.69,0.58-0.96c0.25-0.27,0.55-0.47,0.9-0.62
			c0.35-0.15,0.73-0.22,1.15-0.22c0.42,0,0.81,0.07,1.16,0.22c0.35,0.14,0.65,0.35,0.9,0.62c0.25,0.27,0.44,0.59,0.58,0.96
			C39.8,22.64,39.87,23.06,39.87,23.51z M39.43,23.51c0-0.42-0.06-0.79-0.17-1.12c-0.12-0.33-0.28-0.61-0.49-0.84
			c-0.21-0.23-0.46-0.41-0.75-0.53c-0.29-0.12-0.62-0.18-0.98-0.18c-0.35,0-0.68,0.06-0.97,0.18s-0.54,0.3-0.76,0.53
			c-0.21,0.23-0.38,0.51-0.49,0.84c-0.12,0.33-0.17,0.7-0.17,1.12c0,0.42,0.06,0.79,0.17,1.12c0.12,0.33,0.28,0.61,0.49,0.84
			c0.21,0.23,0.46,0.41,0.76,0.53c0.29,0.12,0.62,0.18,0.97,0.18c0.36,0,0.69-0.06,0.98-0.18c0.29-0.12,0.55-0.3,0.75-0.53
			s0.37-0.51,0.49-0.84C39.37,24.31,39.43,23.93,39.43,23.51z M38.26,19.05l-1.23,0.91C37,19.98,36.98,19.99,36.95,20
			s-0.05,0.01-0.09,0.01h-0.29l0.96-0.87c0.04-0.04,0.08-0.06,0.11-0.07c0.03-0.01,0.08-0.02,0.15-0.02H38.26z"/>
		<path d="M41.73,20.56c0.02,0.01,0.05,0.03,0.07,0.07l3.85,5.16c-0.01-0.08-0.01-0.17-0.01-0.24v-4.99h0.38v5.95h-0.21
			c-0.06,0-0.12-0.03-0.16-0.08l-3.87-5.16c0.01,0.08,0.01,0.16,0.01,0.24v5.01h-0.38v-5.95h0.21
			C41.67,20.54,41.7,20.55,41.73,20.56z"/>
	</g>
	<g>
		<ellipse cx="36.92" cy="13.98" rx="0.74" ry="0.69"/>
		<path d="M2.52,13.75c-0.16,0-0.3-0.12-0.3-0.28V3.72c0-0.15,0.13-0.28,0.3-0.28h14.36c0.16,0,0.3,0.12,0.3,0.28S17.05,4,16.88,4
			H2.82v9.48C2.82,13.63,2.68,13.75,2.52,13.75z"/>
		<path d="M36.74,13.8c-0.16,0-0.3-0.12-0.3-0.28V3.9H20.49c-0.16,0-0.3-0.12-0.3-0.28s0.13-0.28,0.3-0.28h16.25
			c0.16,0,0.3,0.12,0.3,0.28v9.91C37.04,13.68,36.9,13.8,36.74,13.8z"/>
		<path class="st7" d="M3.41,15.63H1.61c-0.24,0-0.44-0.2-0.44-0.44v-0.11c0-0.24,0.2-0.44,0.44-0.44h1.79
			c0.24,0,0.44,0.2,0.44,0.44v0.11C3.85,15.44,3.65,15.63,3.41,15.63z"/>
		<path class="st7" d="M18.15,4.39V2.86c0-0.26,0.21-0.48,0.48-0.48h0.12c0.26,0,0.48,0.21,0.48,0.48v1.52
			c0,0.26-0.21,0.48-0.48,0.48h-0.12C18.37,4.86,18.15,4.65,18.15,4.39z"/>
		<path d="M2.5,25.81c-0.17,0-0.3-0.13-0.3-0.28v-8.69c0-0.16,0.14-0.28,0.3-0.28s0.3,0.13,0.3,0.28v8.69
			C2.81,25.68,2.67,25.81,2.5,25.81z"/>
		<g>
			<path d="M2.59,26.34c-0.4,0.05-0.77-0.22-0.82-0.59C1.71,25.38,2,25.03,2.4,24.99c0.03,0,0.07-0.01,0.1-0.01
				c0.36,0,0.67,0.25,0.72,0.6C3.28,25.95,2.99,26.29,2.59,26.34z"/>
			<path d="M2.49,26.38c-0.38,0-0.72-0.27-0.77-0.63c-0.03-0.19,0.03-0.38,0.16-0.53c0.13-0.15,0.31-0.25,0.51-0.27
				c0.03,0,0.06-0.01,0.1-0.01c0.38,0,0.71,0.27,0.76,0.63c0.05,0.39-0.25,0.75-0.67,0.8l0,0C2.56,26.38,2.53,26.38,2.49,26.38z
				 M2.59,26.34L2.59,26.34L2.59,26.34z M2.5,25.02c-0.04,0-0.07,0-0.09,0.01c-0.19,0.02-0.35,0.11-0.46,0.25
				c-0.11,0.14-0.16,0.31-0.14,0.48c0.05,0.35,0.4,0.61,0.78,0.56l0,0c0.38-0.04,0.65-0.37,0.61-0.72
				C3.14,25.26,2.85,25.02,2.5,25.02z"/>
		</g>
	</g>
</g>
</svg>
