<?xml version="1.0" encoding="utf-8"?>
<!-- Generator: Adobe Illustrator 23.0.6, SVG Export Plug-In . SVG Version: 6.00 Build 0)  -->
<svg version="1.1" id="Capa_1" xmlns="http://www.w3.org/2000/svg" xmlns:xlink="http://www.w3.org/1999/xlink" x="0px" y="0px"
	 viewBox="0 0 75.23 30" style="enable-background:new 0 0 75.23 30;" xml:space="preserve">
<style type="text/css">
	.st0{fill:#FFFFFF;}
	.st1{fill:url(#SVGID_1_);}
	.st2{fill:#1313E2;}
	.st3{fill:#0606B5;}
	.st4{fill:url(#SVGID_2_);}
	.st5{fill:#E01780;}
	.st6{fill:#24B224;}
	.st7{fill:#5E2B39;}
	.st8{fill:#EF890F;}
	.st9{fill:#DD2719;}
	.st10{fill:#D8D036;}
	.st11{fill:#26269B;}
	.st12{fill:#A22AE8;}
	.st13{fill:#626B68;}
	.st14{fill:#757A09;}
	.st15{fill:#606060;}
</style>
<g>
	<ellipse cx="36.14" cy="13.94" rx="0.74" ry="0.75"/>
	<path d="M1.92,13.69c-0.16,0-0.3-0.13-0.3-0.3V2.72c0-0.17,0.13-0.3,0.3-0.3H16.3c0.16,0,0.3,0.13,0.3,0.3s-0.13,0.3-0.3,0.3H2.21
		v10.37C2.21,13.56,2.08,13.69,1.92,13.69z"/>
	<path d="M36.17,13.75c-0.16,0-0.3-0.13-0.3-0.3V2.91H19.91c-0.16,0-0.3-0.13-0.3-0.3c0-0.17,0.13-0.3,0.3-0.3h16.26
		c0.16,0,0.3,0.13,0.3,0.3v10.84C36.47,13.62,36.34,13.75,36.17,13.75z"/>
	<path class="st5" d="M2.7,15.75H1.11c-0.3,0-0.54-0.24-0.54-0.54v0c0-0.3,0.24-0.54,0.54-0.54H2.7c0.3,0,0.54,0.24,0.54,0.54v0
		C3.24,15.51,3,15.75,2.7,15.75z"/>
	<path class="st5" d="M17.57,3.43V1.79c0-0.3,0.24-0.54,0.54-0.54h0c0.3,0,0.54,0.24,0.54,0.54v1.64c0,0.3-0.24,0.54-0.54,0.54h0
		C17.81,3.97,17.57,3.73,17.57,3.43z"/>
	<g>
		<path d="M10.85,10.1v0.39H7.49v2.72h2.92v0.39H7.49v2.97H7.02V10.1H10.85z"/>
		<path d="M18.06,13.34c0,0.5-0.07,0.95-0.22,1.36c-0.15,0.41-0.36,0.75-0.62,1.04c-0.27,0.29-0.59,0.51-0.96,0.67
			c-0.37,0.16-0.79,0.24-1.24,0.24c-0.45,0-0.86-0.08-1.23-0.24c-0.37-0.16-0.69-0.38-0.96-0.67s-0.48-0.64-0.63-1.04
			c-0.15-0.41-0.22-0.86-0.22-1.36c0-0.5,0.07-0.95,0.22-1.36c0.15-0.41,0.36-0.75,0.63-1.04s0.59-0.51,0.96-0.67
			c0.37-0.16,0.78-0.24,1.23-0.24c0.46,0,0.87,0.08,1.24,0.24c0.37,0.16,0.69,0.38,0.96,0.67c0.27,0.29,0.48,0.64,0.62,1.05
			C17.98,12.39,18.06,12.84,18.06,13.34z M17.58,13.34c0-0.45-0.06-0.86-0.19-1.22c-0.12-0.36-0.3-0.67-0.52-0.92
			c-0.22-0.25-0.49-0.44-0.81-0.57c-0.32-0.13-0.67-0.2-1.05-0.2c-0.38,0-0.73,0.07-1.04,0.2c-0.32,0.13-0.59,0.32-0.81,0.57
			c-0.23,0.25-0.4,0.55-0.53,0.92c-0.12,0.36-0.19,0.76-0.19,1.22c0,0.45,0.06,0.86,0.19,1.22c0.13,0.36,0.3,0.66,0.53,0.91
			c0.23,0.25,0.5,0.44,0.81,0.57c0.31,0.13,0.66,0.2,1.04,0.2c0.39,0,0.74-0.07,1.05-0.2c0.32-0.13,0.59-0.32,0.81-0.57
			c0.22-0.25,0.4-0.55,0.52-0.91C17.52,14.2,17.58,13.79,17.58,13.34z"/>
		<path d="M20.05,10.12c0.02,0.01,0.05,0.03,0.08,0.07l4.14,5.61c-0.01-0.09-0.01-0.18-0.01-0.27V10.1h0.41v6.47h-0.22
			c-0.07,0-0.12-0.03-0.17-0.09l-4.16-5.62c0.01,0.09,0.01,0.18,0.01,0.26v5.45h-0.4V10.1h0.23C19.99,10.1,20.02,10.11,20.05,10.12z
			"/>
		<path d="M30.89,10.1v0.4h-2.25v6.08h-0.46V10.5h-2.26v-0.4H30.89z"/>
		<path d="M11.83,27.55h-0.36c-0.04,0-0.08-0.01-0.1-0.03c-0.03-0.02-0.05-0.05-0.06-0.09l-0.75-1.88H7.41l-0.75,1.88
			c-0.01,0.03-0.03,0.06-0.06,0.09c-0.03,0.02-0.07,0.04-0.11,0.04H6.14l2.62-6.47h0.46L11.83,27.55z M7.55,25.2h2.87l-1.31-3.27
			c-0.02-0.05-0.04-0.11-0.06-0.18s-0.04-0.13-0.06-0.21c-0.02,0.07-0.04,0.14-0.06,0.21s-0.04,0.13-0.06,0.18L7.55,25.2z"/>
		<path d="M13.33,21.1c0.02,0.01,0.05,0.03,0.08,0.07l4.14,5.61c-0.01-0.09-0.01-0.18-0.01-0.27v-5.43h0.41v6.47h-0.22
			c-0.07,0-0.12-0.03-0.17-0.09l-4.16-5.62c0.01,0.09,0.01,0.18,0.01,0.26v5.45h-0.4v-6.47h0.23C13.28,21.08,13.31,21.09,13.33,21.1
			z"/>
		<path d="M23.84,21.08v0.39h-3.37v2.62h2.8v0.38h-2.8v2.7h3.37v0.39H20v-6.47H23.84z"/>
		<path d="M26.1,24.63v2.93h-0.46v-6.47h1.63c0.74,0,1.29,0.14,1.65,0.43c0.36,0.29,0.55,0.71,0.55,1.27c0,0.25-0.04,0.47-0.13,0.68
			c-0.08,0.2-0.21,0.38-0.36,0.54s-0.35,0.28-0.57,0.38c-0.22,0.1-0.47,0.16-0.76,0.19c0.07,0.05,0.14,0.11,0.19,0.18l2.2,2.8h-0.4
			c-0.05,0-0.09-0.01-0.12-0.03s-0.07-0.05-0.1-0.09l-2.05-2.63c-0.05-0.07-0.11-0.11-0.16-0.14s-0.15-0.04-0.27-0.04H26.1z
			 M26.1,24.28h1.11c0.28,0,0.54-0.03,0.76-0.1c0.22-0.07,0.41-0.17,0.57-0.29c0.16-0.13,0.27-0.28,0.36-0.46
			c0.08-0.18,0.12-0.38,0.12-0.61c0-0.46-0.15-0.8-0.45-1.02c-0.3-0.22-0.73-0.33-1.3-0.33H26.1V24.28z"/>
		<path d="M33.09,19.46l-1.32,0.99c-0.03,0.02-0.06,0.04-0.08,0.04c-0.03,0.01-0.06,0.01-0.09,0.01h-0.32l1.03-0.94
			c0.04-0.04,0.08-0.07,0.12-0.08c0.04-0.01,0.09-0.02,0.16-0.02H33.09z M32.01,27.55h-0.47v-6.47h0.47V27.55z"/>
		<path d="M39.05,27.55h-0.36c-0.04,0-0.08-0.01-0.1-0.03c-0.03-0.02-0.05-0.05-0.06-0.09l-0.75-1.88h-3.14l-0.75,1.88
			c-0.01,0.03-0.03,0.06-0.06,0.09s-0.07,0.04-0.11,0.04h-0.35l2.62-6.47h0.46L39.05,27.55z M34.77,25.2h2.87l-1.31-3.27
			c-0.02-0.05-0.04-0.11-0.06-0.18c-0.02-0.07-0.04-0.13-0.06-0.21c-0.02,0.07-0.04,0.14-0.06,0.21c-0.02,0.07-0.04,0.13-0.06,0.18
			L34.77,25.2z"/>
	</g>
	<path d="M1.9,26.86c-0.15,0-0.28-0.13-0.28-0.28v-9.51c0-0.16,0.13-0.28,0.28-0.28s0.28,0.13,0.28,0.28v9.51
		C2.18,26.74,2.05,26.86,1.9,26.86z"/>
	<g>
		<path d="M1.98,27.47c-0.4,0.05-0.77-0.24-0.82-0.65c-0.05-0.41,0.24-0.78,0.64-0.83c0.03,0,0.07-0.01,0.1-0.01
			c0.36,0,0.68,0.28,0.72,0.65C2.67,27.04,2.39,27.42,1.98,27.47z"/>
		<path d="M1.89,27.51c-0.38,0-0.72-0.29-0.76-0.68c-0.05-0.43,0.25-0.82,0.67-0.87c0.04-0.01,0.08-0.01,0.1-0.01
			c0.38,0,0.71,0.3,0.76,0.68c0.05,0.43-0.25,0.82-0.67,0.87l0,0C1.96,27.51,1.92,27.51,1.89,27.51z M1.98,27.47L1.98,27.47
			L1.98,27.47z M1.9,26.02c-0.03,0-0.06,0-0.09,0.01c-0.38,0.05-0.66,0.41-0.61,0.79c0.05,0.39,0.4,0.67,0.78,0.62l0,0
			c0.38-0.05,0.66-0.41,0.61-0.79C2.54,26.29,2.25,26.02,1.9,26.02z"/>
	</g>
</g>
</svg>
